# Blender 3.3.1
# www.blender.org
mtllib прямо.дорога.mtl
o Plane.026
v -1.141686 0.000000 1.984644
v 1.134599 0.000000 1.984644
v 1.134599 0.000000 -1.996643
v -1.141686 0.000000 -1.996643
vn -0.0000 1.0000 -0.0000
vt 0.215464 0.015464
vt 0.784536 0.015464
vt 0.784536 0.984536
vt 0.215464 0.984536
s 0
usemtl grey
f 1/1/1 2/2/1 3/3/1 4/4/1
o Plane.025
v 1.196457 0.000000 1.994000
v 1.196457 0.000000 -2.006000
v -1.203543 0.000000 -2.006000
v -1.203543 0.000000 1.994000
v -1.141686 0.000000 1.984644
v 1.134599 0.000000 1.984644
v 1.134599 0.000000 -1.996643
v -1.141686 0.000000 -1.996643
v 1.196457 0.298734 1.994000
v 1.196457 0.298734 -2.006000
v -1.203543 0.298734 1.994000
v -1.203543 0.298734 -2.006000
v 1.134599 0.298734 1.984644
v 1.134599 0.298734 -1.996643
v -1.141686 0.298734 1.984644
v -1.141686 0.298734 -1.996643
vn -0.1496 -0.0000 0.9888
vn -0.1496 -0.0000 -0.9888
vn -0.0000 1.0000 -0.0000
vn 0.1496 -0.0000 -0.9888
vn 1.0000 -0.0000 -0.0000
vn 0.1496 -0.0000 0.9888
vn -1.0000 -0.0000 -0.0000
vt 0.800000 0.000000
vt 0.800000 1.000000
vt 0.200000 1.000000
vt 0.200000 0.000000
vt 0.215464 0.015464
vt 0.784536 0.015464
vt 0.784536 0.984536
vt 0.215464 0.984536
vt 0.800000 0.000000
vt 0.800000 1.000000
vt 0.200000 0.000000
vt 0.200000 1.000000
vt 0.784536 0.015464
vt 0.784536 0.984536
vt 0.215464 0.015464
vt 0.215464 0.984536
s 0
usemtl dark_grey
f 10/10/2 5/5/2 13/13/2 17/17/2
f 6/6/3 11/11/3 18/18/3 14/14/3
f 18/18/4 17/17/4 13/13/4 14/14/4
f 19/19/4 20/20/4 16/16/4 15/15/4
f 12/12/5 7/7/5 16/16/5 20/20/5
f 5/5/6 6/6/6 14/14/6 13/13/6
f 8/8/7 9/9/7 19/19/7 15/15/7
f 9/9/6 12/12/6 20/20/6 19/19/6
f 11/11/8 10/10/8 17/17/8 18/18/8
f 7/7/8 8/8/8 15/15/8 16/16/8
