# Blender 3.3.1
# www.blender.org
mtllib обочина.прямо.mtl
o Plane.024
v -2.005136 0.000000 2.011194
v 1.994864 0.000000 2.011194
v -2.005136 0.000000 -1.988806
v 1.994864 0.000000 -1.988806
v 1.194864 0.000000 2.011194
v 1.194864 0.000000 -1.988806
v -1.205136 0.000000 -1.988806
v -1.205136 0.000000 2.011194
v -1.143278 0.000000 2.001837
v 1.133007 0.000000 2.001837
v 1.133007 0.000000 -1.979449
v -1.143278 0.000000 -1.979449
vn -0.0000 1.0000 -0.0000
vt 0.000000 0.000000
vt 1.000000 0.000000
vt 0.000000 1.000000
vt 1.000000 1.000000
vt 0.800000 0.000000
vt 0.800000 1.000000
vt 0.200000 1.000000
vt 0.200000 0.000000
vt 0.215464 0.015464
vt 0.784536 0.015464
vt 0.784536 0.984536
vt 0.215464 0.984536
s 0
usemtl l_green
f 5/5/1 2/2/1 4/4/1 6/6/1
f 1/1/1 8/8/1 7/7/1 3/3/1
f 10/10/1 9/9/1 8/8/1 5/5/1
f 12/12/1 11/11/1 6/6/1 7/7/1
