# Blender 3.3.1
# www.blender.org
mtllib лево.дорога.mtl
o Plane.011
v -1.973258 0.000000 -1.197079
v 1.237852 0.000000 1.995229
v 1.237853 0.000000 1.201007
v -1.178200 0.000000 -1.197079
v -0.518849 0.000000 -1.197079
v 1.237853 0.000000 0.559623
v -0.066285 0.000000 -1.130002
v 0.355885 0.000000 -0.955134
v 0.723326 0.000000 -0.682553
v 1.170776 0.000000 0.107059
v 0.995907 0.000000 -0.315112
v -1.972951 0.000000 1.201007
v -1.178200 0.000000 1.994290
v -1.723849 0.000000 1.243059
v -1.504573 0.000000 1.353429
v -1.220252 0.000000 1.746657
v -1.330622 0.000000 1.527380
v -1.970889 0.000000 -1.123632
v 1.164405 0.000000 1.992241
v 1.164405 0.000000 1.201007
v -1.178200 0.000000 -1.123632
v -0.524263 0.000000 -1.123632
v -0.086019 0.000000 -1.058678
v 0.319404 0.000000 -0.890746
v 0.670824 0.000000 -0.630051
v 1.099451 0.000000 0.126792
v 1.164405 0.000000 0.565036
v 0.931519 0.000000 -0.278631
v -1.972983 0.000000 1.127560
v -1.700561 0.000000 1.172554
v -1.460994 0.000000 1.293137
v -1.270330 0.000000 1.483802
v -1.149747 0.000000 1.723369
v -1.104752 0.000000 1.994580
v 1.164405 0.298652 1.992241
v 1.164405 0.298652 1.201007
v -1.970889 0.298652 -1.123632
v -1.178200 0.298652 -1.123632
v -0.524263 0.298652 -1.123632
v -0.086019 0.298652 -1.058678
v 0.319404 0.298652 -0.890746
v 0.670824 0.298652 -0.630051
v 1.099451 0.298652 0.126792
v 1.164405 0.298652 0.565036
v 0.931519 0.298652 -0.278631
v -1.972983 0.298652 1.127560
v -1.700561 0.298652 1.172554
v -1.460994 0.298652 1.293137
v -1.270330 0.298652 1.483802
v -1.149747 0.298652 1.723369
v -1.104752 0.298652 1.994580
v 1.237852 0.298652 1.995229
v 1.237853 0.298652 1.201007
v -1.973258 0.298652 -1.197079
v -1.178200 0.298652 -1.197079
v -0.518849 0.298652 -1.197079
v -0.066285 0.298652 -1.130002
v 0.355885 0.298652 -0.955134
v 0.723326 0.298652 -0.682553
v 1.170776 0.298652 0.107059
v 1.237853 0.298652 0.559623
v 0.995907 0.298652 -0.315112
v -1.972951 0.298652 1.201007
v -1.723849 0.298652 1.243059
v -1.504573 0.298652 1.353429
v -1.330622 0.298652 1.527380
v -1.220252 0.298652 1.746657
v -1.178200 0.298652 1.994290
vn 0.1466 -0.0000 -0.9892
vn -0.0000 -0.0000 -1.0000
vn -0.8932 -0.0000 0.4496
vn -0.0000 -0.0000 1.0000
vn 1.0000 -0.0000 -0.0000
vn -0.9859 -0.0000 0.1674
vn -1.0000 -0.0000 -0.0000
vn -0.7071 -0.0000 0.7071
vn 0.7071 -0.0000 -0.7071
vn -0.8031 -0.0000 0.5958
vn -0.4496 -0.0000 0.8932
vn -0.9239 -0.0000 0.3827
vn -0.1665 -0.0000 0.9860
vn -0.9892 -0.0000 0.1466
vn -0.0000 1.0000 -0.0000
vn 0.8932 -0.0000 -0.4496
vn 0.3827 -0.0000 -0.9239
vn 0.5958 -0.0000 -0.8031
vn -1.0000 -0.0000 0.0004
vn -0.9995 -0.0000 0.0322
vn 0.9892 -0.0000 -0.1466
vn -0.0406 -0.0000 0.9992
vn 0.1630 -0.0000 -0.9866
vn 0.9239 -0.0000 -0.3827
vn 0.9865 -0.0000 -0.1637
vn -0.1466 -0.0000 0.9892
vn 0.8031 -0.0000 -0.5958
vn -0.0040 -0.0000 1.0000
vn -0.3827 -0.0000 0.9239
vn -0.5958 -0.0000 0.8031
vn 0.4496 -0.0000 -0.8932
vt 0.000000 0.000000
vt 0.201923 0.000000
vt 0.000000 0.000000
vt 1.000000 0.802778
vt 0.000000 0.000000
vt 0.000000 0.000000
vt 0.000000 0.000000
vt 0.000000 0.000000
vt 0.000000 0.000000
vt 0.000000 0.000000
vt 0.000000 0.000000
vt 0.000000 0.000000
vt 0.000000 0.000000
vt 0.000000 0.000000
vt 0.801445 0.001738
vt 0.000000 0.000000
vt 0.998472 0.198765
vt 0.000000 0.000000
vt 0.000000 0.000000
vt 0.000000 0.000000
vt 0.000000 0.000000
vt 0.220285 0.018362
vt 0.981638 0.784416
vt 0.801445 0.784416
vt 0.220285 0.198765
vt 0.220285 0.362249
vt 0.236523 0.471810
vt 0.278506 0.573166
vt 0.343680 0.661021
vt 0.532891 0.768177
vt 0.642452 0.784416
vt 0.431535 0.726194
vt 0.783083 0.003318
vt 0.794331 0.068174
vt 0.824477 0.128066
vt 0.872143 0.175732
vt 0.932035 0.205878
vt 0.996891 0.217127
vt 0.981638 0.784416
vt 0.801445 0.784416
vt 0.220285 0.018362
vt 0.220285 0.198765
vt 0.220285 0.362249
vt 0.236523 0.471810
vt 0.278506 0.573166
vt 0.343680 0.661021
vt 0.532891 0.768177
vt 0.642452 0.784416
vt 0.431535 0.726194
vt 0.783083 0.003318
vt 0.794331 0.068174
vt 0.824477 0.128066
vt 0.872143 0.175732
vt 0.932035 0.205878
vt 0.996891 0.217127
vt 0.000000 0.000000
vt 1.000000 0.802778
vt 0.801445 0.802778
vt 0.000000 0.000000
vt 0.000000 0.000000
vt 0.201923 0.000000
vt 0.000000 0.000000
vt 0.201923 0.198765
vt 0.000000 0.000000
vt 0.201923 0.363602
vt 0.218692 0.476743
vt 0.000000 0.000000
vt 0.262409 0.582286
vt 0.000000 0.000000
vt 0.330555 0.674146
vt 0.000000 0.000000
vt 0.527957 0.786009
vt 0.000000 0.000000
vt 0.641099 0.802778
vt 0.000000 0.000000
vt 0.422415 0.742291
vt 0.000000 0.000000
vt 0.000000 0.000000
vt 0.801445 0.001738
vt 0.000000 0.000000
vt 0.811958 0.062352
vt 0.000000 0.000000
vt 0.839550 0.117171
vt 0.000000 0.000000
vt 0.883038 0.160659
vt 0.000000 0.000000
vt 0.937857 0.188252
vt 0.000000 0.000000
vt 0.998472 0.198765
s 0
usemtl dark_grey
f 7/9/1 5/7/1 56/64/1 57/67/1
f 4/6/2 1/1/2 54/60/2 55/62/2
f 17/21/3 16/20/3 67/86/3 66/84/3
f 21/25/4 22/26/4 39/43/4 38/42/4
f 2/3/5 3/5/5 53/59/5 52/56/5
f 16/20/6 13/16/6 68/88/6 67/86/6
f 27/31/7 20/24/7 36/40/7 44/48/7
f 15/19/8 17/21/8 66/84/8 65/82/8
f 32/36/9 31/35/9 48/52/9 49/53/9
f 25/29/10 28/32/10 45/49/10 42/46/10
f 14/18/11 15/19/11 65/82/11 64/80/11
f 28/32/12 26/30/12 43/47/12 45/49/12
f 12/14/13 14/18/13 64/80/13 63/78/13
f 26/30/14 27/31/14 44/48/14 43/47/14
f 5/7/2 4/6/2 55/62/2 56/64/2
f 36/40/15 35/39/15 52/57/15 53/58/15
f 37/41/15 38/42/15 55/63/15 54/61/15
f 39/43/15 40/44/15 57/66/15 56/65/15
f 40/44/15 41/45/15 58/68/15 57/66/15
f 41/45/15 42/46/15 59/70/15 58/68/15
f 43/47/15 44/48/15 61/74/15 60/72/15
f 45/49/15 43/47/15 60/72/15 62/76/15
f 42/46/15 45/49/15 62/76/15 59/70/15
f 44/48/15 36/40/15 53/58/15 61/74/15
f 38/42/15 39/43/15 56/65/15 55/63/15
f 47/51/15 46/50/15 63/79/15 64/81/15
f 48/52/15 47/51/15 64/81/15 65/83/15
f 49/53/15 48/52/15 65/83/15 66/85/15
f 51/55/15 50/54/15 67/87/15 68/89/15
f 50/54/15 49/53/15 66/85/15 67/87/15
f 33/37/16 32/36/16 49/53/16 50/54/16
f 8/10/17 7/9/17 57/67/17 58/69/17
f 9/11/18 8/10/18 58/69/18 59/71/18
f 29/33/19 12/15/19 63/79/19 46/50/19
f 20/24/7 19/23/7 35/39/7 36/40/7
f 1/2/20 18/22/20 37/41/20 54/61/20
f 6/8/21 10/12/21 60/73/21 61/75/21
f 18/22/4 21/25/4 38/42/4 37/41/4
f 19/23/22 2/4/22 52/57/22 35/39/22
f 30/34/23 29/33/23 46/50/23 47/51/23
f 10/12/24 11/13/24 62/77/24 60/73/24
f 34/38/25 33/37/25 50/54/25 51/55/25
f 22/26/26 23/27/26 40/44/26 39/43/26
f 11/13/27 9/11/27 59/71/27 62/77/27
f 13/17/28 34/38/28 51/55/28 68/89/28
f 23/27/29 24/28/29 41/45/29 40/44/29
f 3/5/5 6/8/5 61/75/5 53/59/5
f 24/28/30 25/29/30 42/46/30 41/45/30
f 31/35/31 30/34/31 47/51/31 48/52/31
o Plane.010
v -1.973258 0.000000 -1.197079
v -1.973258 0.000000 1.201007
v 1.237852 0.000000 1.995229
v -1.178200 0.000000 1.995229
v -1.178200 0.000000 0.412899
v -1.972951 0.000000 1.201007
v -1.178200 0.000000 1.994290
v -0.390092 0.000000 1.201007
v -1.220252 0.000000 0.655358
v -1.330622 0.000000 0.874634
v -1.136148 0.000000 0.655358
v -1.174897 0.000000 0.828141
v -1.261605 0.000000 0.988333
v -1.025777 0.000000 0.874634
v -1.092688 0.000000 0.987565
v -1.178200 0.000000 1.098881
v -1.723849 0.000000 1.158955
v -1.551066 0.000000 1.197705
v -1.390874 0.000000 1.284413
v -1.504573 0.000000 1.048585
v -1.391642 0.000000 1.115495
v -1.280326 0.000000 1.201007
v -1.136148 0.000000 1.746657
v -1.025777 0.000000 1.527380
v -1.181502 0.000000 1.573873
v -1.094794 0.000000 1.413682
v -1.263712 0.000000 1.414449
v -1.178200 0.000000 1.303133
v -0.632550 0.000000 1.158955
v -0.851827 0.000000 1.048585
v -0.632550 0.000000 1.243059
v -0.805334 0.000000 1.204309
v -0.965525 0.000000 1.117602
v -0.851827 0.000000 1.353430
v -0.964758 0.000000 1.286519
v -1.076074 0.000000 1.201007
v -1.970889 0.000000 -1.123632
v -1.972911 0.000000 1.127560
v -1.104752 0.000000 1.993678
v 1.164405 0.000000 1.992241
v 1.164405 0.000000 1.201007
v -1.178200 0.000000 -1.123632
v -0.524263 0.000000 -1.123632
v -0.086019 0.000000 -1.058678
v 0.319404 0.000000 -0.890746
v 0.670824 0.000000 -0.630051
v 1.099451 0.000000 0.126792
v 1.164405 0.000000 0.565036
v 0.931519 0.000000 -0.278631
v -1.972983 0.000000 1.127560
v -1.700561 0.000000 1.172554
v -1.460994 0.000000 1.293137
v -1.270330 0.000000 1.483802
v -1.149747 0.000000 1.723369
v -1.104752 0.000000 1.994580
vn -0.0000 1.0000 -0.0000
vt 0.201923 0.000000
vt 0.801445 0.000000
vt 1.000000 0.802778
vt 1.000000 0.198765
vt 0.604418 0.198765
vt 0.801445 0.001738
vt 0.998472 0.198765
vt 0.801445 0.395792
vt 0.665032 0.188252
vt 0.719851 0.160659
vt 0.665032 0.209278
vt 0.708228 0.199590
vt 0.708228 0.198765
vt 0.748276 0.177913
vt 0.719851 0.236870
vt 0.748084 0.220143
vt 0.775913 0.198765
vt 0.790932 0.062352
vt 0.800619 0.105548
vt 0.801445 0.105548
vt 0.822296 0.145596
vt 0.763339 0.117171
vt 0.780067 0.145404
vt 0.801445 0.173233
vt 0.937857 0.209278
vt 0.883038 0.236870
vt 0.894661 0.197939
vt 0.894661 0.198765
vt 0.854613 0.219616
vt 0.854805 0.177387
vt 0.826976 0.198765
vt 0.790932 0.335177
vt 0.763339 0.280358
vt 0.811958 0.335177
vt 0.802270 0.291981
vt 0.801445 0.291981
vt 0.780593 0.251933
vt 0.839550 0.280358
vt 0.822823 0.252125
vt 0.801445 0.224296
vt 0.220285 0.018362
vt 0.783083 0.018362
vt 0.981638 0.217127
vt 0.981638 0.784416
vt 0.801445 0.784416
vt 0.220285 0.198765
vt 0.220285 0.362249
vt 0.236523 0.471810
vt 0.278506 0.573166
vt 0.343680 0.661021
vt 0.532891 0.768177
vt 0.642452 0.784416
vt 0.431535 0.726194
vt 0.783083 0.003318
vt 0.794331 0.068174
vt 0.824477 0.128066
vt 0.872143 0.175732
vt 0.932035 0.205878
vt 0.996891 0.217127
s 0
usemtl grey
f 105/130/32 106/131/32 118/143/32 85/107/32 88/111/32 78/99/32 77/98/32 73/94/32 110/135/32
f 110/135/32 73/94/32 79/100/32 82/104/32 98/122/32 97/121/32 76/97/32 109/134/32 116/141/32 115/140/32 117/142/32 114/139/32 113/138/32 112/137/32 111/136/32
f 73/94/32 77/98/32 80/102/32 79/100/32
f 77/98/32 78/99/32 81/103/32 80/101/32
f 78/99/32 88/111/32 89/112/32 81/103/32
f 79/100/32 80/101/32 83/105/32 82/104/32
f 80/102/32 81/103/32 84/106/32 83/105/32
f 81/103/32 89/112/32 90/113/32 84/106/32
f 118/143/32 119/144/32 86/109/32 85/107/32
f 119/144/32 120/145/32 87/110/32 86/108/32
f 120/145/32 121/146/32 95/119/32 87/110/32
f 85/107/32 86/108/32 89/112/32 88/111/32
f 86/109/32 87/110/32 90/113/32 89/112/32
f 87/110/32 95/119/32 96/120/32 90/113/32
f 123/148/32 91/114/32 93/117/32 122/147/32
f 91/114/32 92/115/32 94/118/32 93/116/32
f 92/115/32 102/127/32 103/128/32 94/118/32
f 122/147/32 93/116/32 95/119/32 121/146/32
f 93/117/32 94/118/32 96/120/32 95/119/32
f 94/118/32 103/128/32 104/129/32 96/120/32
f 76/97/32 97/121/32 100/125/32 99/123/32
f 97/121/32 98/122/32 101/126/32 100/124/32
f 98/122/32 82/104/32 83/105/32 101/126/32
f 99/123/32 100/124/32 103/128/32 102/127/32
f 100/125/32 101/126/32 104/129/32 103/128/32
f 101/126/32 83/105/32 84/106/32 104/129/32
f 84/106/32 90/113/32 96/120/32 104/129/32
f 76/97/32 99/123/32 102/127/32 92/115/32 91/114/32 123/148/32 107/132/32 108/133/32 109/134/32
f 106/131/32 105/130/32 69/90/32 70/91/32
f 108/133/32 107/132/32 72/93/32 71/92/32
f 107/132/32 123/148/32 75/96/32 72/93/32
f 118/143/32 106/131/32 70/91/32 74/95/32
